<?xml version="1.0" encoding="utf-8"?>
<!-- Generator: Adobe Illustrator 25.2.0, SVG Export Plug-In . SVG Version: 6.00 Build 0)  -->
<svg version="1.1" xmlns="http://www.w3.org/2000/svg" xmlns:xlink="http://www.w3.org/1999/xlink" x="0px" y="0px"
	 viewBox="0 0 137.8 59" style="enable-background:new 0 0 137.8 59;" xml:space="preserve">
<style type="text/css">
	.st0{fill:none;}
	.st1{fill:#00A8BD;}
	.st2{display:none;}
	.st3{display:inline;}
	.st4{fill:#E6E7E8;}
	.st5{fill:none;stroke:#231F20;stroke-width:0.33;stroke-dasharray:1.314,1.314;}
	.st6{fill:none;stroke:#231F20;stroke-width:0.33;stroke-dasharray:1.313,1.313;}
	.st7{fill:none;stroke:#231F20;stroke-width:0.33;stroke-dasharray:1.317,1.317;}
	.st8{fill:none;stroke:#231F20;stroke-width:0.33;stroke-dasharray:1.32,1.32;}
	.st9{fill:none;stroke:#231F20;stroke-width:0.33;stroke-dasharray:1.309,1.309;}
</style>
<g id="LOGO">
	<rect x="-47.7" y="-44" class="st0" width="230.7" height="177.1"/>
	<g>
		<path class="st1" d="M23.6,14.7c2.4-0.3,4.7-0.1,6.8,1c1,0.5,2.8,2,3.8,2.9c0.4,0.4,1.1,0.3,1.5-0.1l4.9-5.2
			c0.4-0.4,0.4-1.1-0.1-1.5c-0.5-0.5-1.2-1.1-1.8-1.6c-1.7-1.4-3.5-2.4-5.6-3.1c-3.8-1.3-7.7-1.5-11.6-0.9
			c-7.8,1.2-13.2,5.5-16,12.8c-1.4,3.7-1.9,7.6-1.9,11.7c0,0.9,0,2,0.1,3.1c0.2,3,0.8,5.9,1.9,8.6c2.2,5.6,6.2,9.7,12.4,11.8
			c1.2,0.4,2.5,0.7,3.8,0.8c3.2,0.4,6.3,0.3,9.4-0.4c2.5-0.6,4.8-1.7,6.8-3.2c0.7-0.5,1.8-1.8,2.5-2.6c0.4-0.4,0.3-1-0.1-1.4
			l-5.1-4.7c-0.4-0.4-1-0.4-1.4,0c-0.3,0.3-0.7,0.7-1,1c-3.2,2.9-7.1,3.5-11.1,2.3c-4.4-1.3-6.8-4.4-7.8-8.7
			c-0.9-4.3-0.8-8.6-0.1-12.9C14.8,19.3,18.5,15.3,23.6,14.7"/>
		<path class="st1" d="M87.9,53.1c-1.5-2.8-1.8-9-1.8-14.3c0-0.4,0-30.5,0-30.5c0-0.6-0.5-1-1-1h-7.8c-0.6,0-1,0.5-1,1v29.4
			c0,0-0.1,2.2-1.2,4.4c-1.5,2.8-4.3,4.2-8.6,4.2c-9.3,0-10.1-6.3-10.2-8.2V8.2c0-0.6-0.5-1-1-1h-7.8c-0.6,0-1,0.5-1,1V38
			c0,5,1.8,17.2,18.2,17.2c4.4-0.1,9.9-1.5,12.5-3.1c0.1,0.7,0.3,1.1,0.5,1.5c0.3,0.6,0.8,0.9,1.5,0.9h1.9l3.8,0l2.3,0
			C87.7,54.4,88.2,53.7,87.9,53.1"/>
		<path class="st1" d="M122.4,39.8c-0.4,3.8-2.6,6.2-6.3,7c-3.1,0.7-6.3,0.7-9.4-0.2c-2.7-0.9-4.2-2.9-4.3-5.8
			c-0.1-2,0.4-3.9,1.9-5.3c1.3-1.2,2.8-1.7,4.5-1.9c1.3-0.2,13.3-0.2,13.3-0.2c0.3,0,0.5-0.1,0.5,0.4
			C122.5,35.7,122.6,37.8,122.4,39.8 M134.1,53.4c-1.1-2.1-1.6-6.1-1.7-10.2c0-3.1,0-18.4,0-20.7c0-1.5-0.1-3.1-0.4-4.6
			c-0.9-4.5-3.2-7.9-7.3-10c-2.7-1.4-5.6-2-8.5-2.3c-3.5-0.3-6.9-0.3-10.3,0.3c-3.4,0.6-6.5,1.9-9,4.4c-0.1,0.1-0.8,0.8-1.4,1.3
			c-0.4,0.4-0.4,1.1,0,1.5c1.4,1.4,4.4,4.1,5.1,4.7c0.4,0.4,1,0.4,1.4,0c1.1-1,3.4-3,5.1-3.4c3.2-0.8,6.5-0.8,9.8,0
			c3.1,0.8,5.1,2.8,5.6,6c0.3,1.8,0.2,3.6,0.2,5.4c0,0.5-0.1,0.6-0.6,0.6c-4,0-8.1,0-12.1,0c-2.9,0-5.7,0.3-8.4,1.3
			c-3.4,1.3-6.1,3.5-7.6,7c-1.5,3.5-1.5,7-0.5,10.6c0.7,2.6,2,4.8,4.1,6.5c1.9,1.6,4,2.5,6.4,3c3,0.7,6.1,0.7,9.1,0.4
			c2.3-0.2,7.5-0.9,10.4-3c0,0,0,0,0,0c0.1,0.7,0.3,1.2,0.5,1.5c0.3,0.6,0.8,0.9,1.5,0.9h1.9l3.8,0l2.3,0
			C134,54.8,134.4,54,134.1,53.4"/>
	</g>
</g>
<g id="EXCLUSION_ZONE" class="st2">
	<g class="st3">
		<g>
			<path class="st4" d="M65.9-35c2.4-0.3,4.7-0.1,6.8,1c1,0.5,2.8,2,3.8,2.9c0.4,0.4,1.1,0.3,1.5-0.1l4.9-5.3
				c0.4-0.4,0.4-1.1-0.1-1.5c-0.5-0.5-1.2-1.1-1.8-1.6c-1.7-1.4-3.5-2.5-5.6-3.2c-3.8-1.3-7.7-1.5-11.6-0.9
				c-7.8,1.2-13.2,5.5-16,12.9C46.4-26.9,46-23,46-18.8c0,0.9,0,2,0.1,3.1c0.2,3,0.8,5.9,1.9,8.7c2.2,5.6,6.2,9.8,12.4,11.9
				c1.2,0.4,2.5,0.7,3.8,0.8c3.2,0.4,6.3,0.3,9.4-0.4c2.5-0.6,4.8-1.7,6.8-3.2c0.7-0.5,1.8-1.8,2.5-2.6C83.2-1,83.2-1.6,82.8-2
				l-5.1-4.7c-0.4-0.4-1-0.4-1.4,0c-0.3,0.3-0.7,0.7-1,1c-3.2,3-7,3.6-11.1,2.4c-4.4-1.3-6.8-4.5-7.7-8.8c-0.9-4.3-0.8-8.6-0.1-13
				C57.1-30.3,60.8-34.3,65.9-35"/>
			<path class="st4" d="M68.4,92.5c2.4-0.3,4.7-0.1,6.8,1c1,0.5,2.8,2,3.8,2.9c0.4,0.4,1.1,0.3,1.5-0.1l4.9-5.3
				c0.4-0.4,0.4-1.1-0.1-1.5c-0.5-0.5-1.2-1.1-1.8-1.6c-1.7-1.4-3.5-2.5-5.6-3.2c-3.8-1.3-7.7-1.5-11.6-0.9
				c-7.8,1.2-13.2,5.5-16,12.9c-1.4,3.7-1.9,7.7-1.9,11.8c0,0.9,0,2,0.1,3.1c0.2,3,0.8,5.9,1.9,8.7c2.2,5.6,6.2,9.8,12.4,11.9
				c1.2,0.4,2.5,0.7,3.8,0.8c3.2,0.4,6.3,0.3,9.4-0.4c2.5-0.6,4.8-1.7,6.8-3.2c0.7-0.5,1.8-1.8,2.5-2.6c0.4-0.4,0.3-1.1-0.1-1.4
				l-5.1-4.7c-0.4-0.4-1-0.4-1.4,0c-0.3,0.3-0.7,0.7-1,1c-3.2,3-7,3.6-11.1,2.4c-4.4-1.3-6.8-4.5-7.7-8.8c-0.9-4.3-0.8-8.6-0.1-13
				C59.6,97.2,63.3,93.1,68.4,92.5"/>
			<path class="st4" d="M-38.7,43.3c-0.3-2.4-0.1-4.7,1-6.8c0.5-1,2-2.8,2.9-3.8c0.4-0.4,0.3-1.1-0.1-1.5l-5.3-4.9
				c-0.4-0.4-1.1-0.4-1.5,0.1c-0.5,0.5-1.1,1.2-1.6,1.8c-1.4,1.7-2.5,3.5-3.2,5.6c-1.3,3.8-1.5,7.7-0.9,11.6
				c1.2,7.8,5.5,13.2,12.9,16c3.7,1.4,7.7,1.9,11.8,1.9c0.9,0,2,0,3.1-0.1c3-0.2,5.9-0.8,8.7-1.9c5.6-2.2,9.8-6.2,11.9-12.4
				c0.4-1.2,0.7-2.5,0.8-3.8c0.4-3.2,0.3-6.3-0.4-9.4c-0.6-2.5-1.7-4.8-3.2-6.8c-0.5-0.7-1.8-1.8-2.6-2.5c-0.4-0.4-1.1-0.3-1.4,0.1
				l-4.7,5.1c-0.4,0.4-0.4,1,0,1.4c0.3,0.3,0.7,0.7,1,1c3,3.2,3.6,7,2.4,11.1c-1.3,4.4-4.5,6.8-8.8,7.7c-4.3,0.9-8.6,0.8-13,0.1
				C-34,52.2-38,48.5-38.7,43.3"/>
			<path class="st4" d="M142,43.3c-0.3-2.4-0.1-4.7,1-6.8c0.5-1,2-2.8,2.9-3.8c0.4-0.4,0.3-1.1-0.1-1.5l-5.3-4.9
				c-0.4-0.4-1.1-0.4-1.5,0.1c-0.5,0.5-1.1,1.2-1.6,1.8c-1.4,1.7-2.5,3.5-3.2,5.6c-1.3,3.8-1.5,7.7-0.9,11.6
				c1.2,7.8,5.5,13.2,12.9,16c3.7,1.4,7.7,1.9,11.8,1.9c0.9,0,2,0,3.1-0.1c3-0.2,5.9-0.8,8.7-1.9c5.6-2.2,9.8-6.2,11.9-12.4
				c0.4-1.2,0.7-2.5,0.8-3.8c0.4-3.2,0.3-6.3-0.4-9.4c-0.6-2.5-1.7-4.8-3.2-6.8c-0.5-0.7-1.8-1.8-2.6-2.5c-0.4-0.4-1.1-0.3-1.4,0.1
				l-4.7,5.1c-0.4,0.4-0.4,1,0,1.4c0.3,0.3,0.7,0.7,1,1c3,3.2,3.6,7,2.4,11.1c-1.3,4.4-4.5,6.8-8.8,7.7c-4.3,0.9-8.6,0.8-13,0.1
				C146.7,52.2,142.7,48.5,142,43.3"/>
			<line class="st5" x1="183.1" y1="5.9" x2="-47.6" y2="5.9"/>
			<line class="st6" x1="182.9" y1="83.4" x2="-47.6" y2="83.4"/>
			<line class="st7" x1="183.1" y1="-43.8" x2="-47.8" y2="-43.8"/>
			<line class="st8" x1="182.9" y1="133.1" x2="-48.8" y2="133.1"/>
			<line class="st5" x1="132.9" y1="-44.1" x2="132.9" y2="133.3"/>
			<line class="st6" x1="182.9" y1="-43.8" x2="182.9" y2="133.3"/>
			<line class="st9" x1="-47.8" y1="-43.8" x2="-47.8" y2="132.7"/>
			<line class="st5" x1="2.5" y1="-44.1" x2="2.5" y2="133.3"/>
		</g>
	</g>
</g>
</svg>
