<svg xmlns="http://www.w3.org/2000/svg" viewBox="0 0 360 106.81"><g id="Layer_2" data-name="Layer 2"><g id="Layer_1-2" data-name="Layer 1"><path d="M107.6,64.53a15,15,0,1,1,15.12-15,14.92,14.92,0,0,1-15.12,15m27.8-30.69V23.48H117a28.87,28.87,0,0,0-9.4-1.63c-15.84,0-28.3,12-28.3,27.64s12.46,27.65,28.3,27.65,28.31-12,28.31-27.65a24.23,24.23,0,0,0-4.3-14.33Z"/><path d="M46.49,64.53a15,15,0,1,1,15.13-15,14.92,14.92,0,0,1-15.13,15m0-42.68c-15.83,0-28.3,12-28.3,27.64s12.47,27.65,28.3,27.65,28.31-12,28.31-27.65S62.33,21.85,46.49,21.85"/><rect y="1.42" width="13.08" height="74.19"/><rect x="141.12" y="23.48" width="13.08" height="52.14"/><path d="M107.6,94.11a14.81,14.81,0,0,1-15-14.94H79.3c0,15.65,12.46,27.64,28.3,27.64s28.31-12,28.31-27.64H122.62a14.81,14.81,0,0,1-15,14.94"/><path d="M202.33,44.11c1.73-6.91,7-10.78,13.89-10.78s12,3.76,13.59,10.78Zm14.2-22.26c-15.74,0-27.69,12-27.69,27.95,0,15.75,10.93,27.34,27.89,27.34a32.19,32.19,0,0,0,23.92-10l-8.79-8.64c-4.29,4.06-8.89,7-14.82,7-7.15,0-12.57-4.06-14.41-10.87h40.78V51.53c0-17.79-11-29.68-26.88-29.68"/><path d="M354.48,18.19V16.57h1c.82,0,1.13.3,1.13.81s-.31.81-1.13.81Zm2.76-.81c0-1-.71-1.42-1.74-1.42h-1.63v4.67h.61V18.8h1l1.13,1.83h.71l-1.22-1.93a1.18,1.18,0,0,0,1.12-1.32"/><path d="M332.31,21.85a21.2,21.2,0,0,0-15.84,6.61v-27H303.39V75.61h13.08V47.26c0-7.52,4.8-12.71,12.77-12.71,7.46,0,11.55,4.58,11.55,12.71V75.61h13.08V44.92c0-14.43-9.1-23.07-21.56-23.07"/><path d="M355.5,22.26a3.92,3.92,0,1,1,0-7.83,3.92,3.92,0,0,1,0,7.83m0-8.44a4.53,4.53,0,1,0,4.5,4.47,4.54,4.54,0,0,0-4.5-4.47"/><path d="M275.9,34.45c5.52,0,10,2.85,13.49,6.81l9.09-8.94A28.41,28.41,0,0,0,276.1,21.85c-15.83,0-28.3,12-28.3,27.64s12.47,27.65,28.3,27.65a28.41,28.41,0,0,0,22.38-10.47l-9.09-8.94c-3.37,3.86-8,6.8-13.59,6.8a14.67,14.67,0,0,1-14.82-15,14.69,14.69,0,0,1,14.92-15"/><polygon points="179.95 7.42 166.87 7.42 166.87 23.48 159.82 23.48 159.82 35.06 166.87 35.06 166.87 75.61 179.95 75.61 179.95 35.06 187.1 35.06 187.1 23.48 179.95 23.48 179.95 7.42"/><path d="M147.56,0A8.51,8.51,0,0,0,139,8.64a8.69,8.69,0,0,0,17.37,0A8.55,8.55,0,0,0,147.56,0"/></g></g></svg>