<svg id="Layer_1" data-name="Layer 1" xmlns="http://www.w3.org/2000/svg" viewBox="0 0 374.56 75.57"><defs><style>.cls-1{fill:#ffd23c;}.cls-2{fill:#f9a63a;}.cls-3{fill:#ee4045;}</style></defs><path d="M358.42,346v0h-.89a4.16,4.16,0,0,1-4.16-3.84V287.41h6.19a4.17,4.17,0,0,1,4,4.16v45.6h16.29v4.7A4.19,4.19,0,0,1,376,346Zm38.93-54.72a4.18,4.18,0,0,0-4.17-3.83h-6V343c0,6.88-3.57,10.93-9.79,11.14h-3.54V363h3.52c9.62-.2,20-6.39,20-19.53V291.32Zm96.32,44.76c2.56-2.57,2.78-6.81,2.78-11.29s-.22-8.65-2.78-11.22a7.66,7.66,0,0,0-5.72-2.18,7.48,7.48,0,0,0-5.64,2.18c-2.58,2.57-2.79,6.77-2.79,11.22s.21,8.72,2.79,11.29a7.55,7.55,0,0,0,5.64,2.18,7.83,7.83,0,0,0,5.72-2.18m12.13-11.29c0,7.37-.78,12.45-4.78,16.59-1.79,1.93-5.89,5.15-13.07,5.15-6.77,0-10.83-2.8-13-5.16-4-4.15-4.75-9.21-4.75-16.58s.78-12.36,4.76-16.52c2.22-2.35,6.28-5.15,13-5.15,7.14,0,11.27,3.22,13.09,5.15,4,4.15,4.76,9.2,4.76,16.52m28.66,11.29c2.57-2.57,2.78-6.81,2.78-11.29s-.21-8.65-2.78-11.22a7.66,7.66,0,0,0-5.72-2.18,7.51,7.51,0,0,0-5.64,2.18c-2.57,2.55-2.78,6.77-2.78,11.22s.21,8.74,2.78,11.29a7.58,7.58,0,0,0,5.64,2.18,7.72,7.72,0,0,0,5.72-2.18m7.38-27.81c4,4.17,4.77,9.21,4.77,16.52s-.78,12.43-4.77,16.59c-2.21,2.35-6.29,5.15-13.1,5.15s-10.81-2.8-13-5.16c-4-4.15-4.76-9.22-4.76-16.58s.78-12.36,4.76-16.52c2.22-2.35,6.28-5.15,13-5.15s10.87,2.8,13.1,5.15M578.11,346H589l-16.43-25.54,14.93-16.86H576.39l-15.81,18.93V291.66a4.16,4.16,0,0,0-4-4.17h-5.3v54.4a4.16,4.16,0,0,0,4.11,4.13h5.24v-12.6l6-6.71Zm-118.57,0h.91v0h5.05l0-54.36a4.15,4.15,0,0,0-4-4.17h-6.08v24.59h-20V291.66a4.15,4.15,0,0,0-4-4.17h-6.07V342a4.14,4.14,0,0,0,4.16,4h.92v0h5V320.84h20V342a4.15,4.15,0,0,0,4.17,4m186-33.26h4.57v-9.12h-4.57a15.69,15.69,0,0,0-15.67,15.67V346h5a4.2,4.2,0,0,0,4.11-4.18v-1.63h0V319.29a6.57,6.57,0,0,1,6.56-6.55m-29.83,8.8,0-.85a13.13,13.13,0,0,0-1.07-5,9,9,0,0,0-16.19,0,12.58,12.58,0,0,0-1.07,5l0,.85Zm9.18,5-.85.85H597.37v.81c0,6.43,4.09,10.6,10.44,10.6,4.89,0,7.4-1.4,10-3.82l5.53,5.38c-3.94,3.79-8,6.12-15.57,6.12-13,0-19.55-7.31-19.55-21.74,0-13.37,7-21.67,18.36-21.67s18.38,7.94,18.38,20.23Z" transform="translate(-275.57 -287.41)"/><path class="cls-1" d="M275.58,287.92v53.57A4.15,4.15,0,0,0,280,346h15V287.92Z" transform="translate(-275.57 -287.41)"/><rect class="cls-2" x="19.45" y="0.51" width="19.45" height="58.08"/><rect class="cls-3" x="38.9" y="0.51" width="19.45" height="58.08"/></svg>