<?xml version="1.0" encoding="utf-8"?>
<!-- Generator: Adobe Illustrator 25.2.0, SVG Export Plug-In . SVG Version: 6.00 Build 0)  -->
<svg version="1.1" id="Layer_1" xmlns="http://www.w3.org/2000/svg" xmlns:xlink="http://www.w3.org/1999/xlink" x="0px" y="0px"
	 viewBox="0 0 140 62" style="enable-background:new 0 0 140 62;" xml:space="preserve">
<style type="text/css">
	.st0{fill:#E01B22;}
	.st1{fill:#231F20;}
</style>
<g>
	<path class="st0" d="M26.3,17.4c-1.7,2.4-4.5,4-7.7,4c-5.2,0-9.5-4.2-9.5-9.5c0-5.2,4.2-9.5,9.5-9.5c1.8,0,3.6,0.5,5,1.4l-5,8
		L28,6.6c-1.5-2.3-3.7-4.2-6.4-5.1c-2.1-0.8-4.4-1.2-6.7-1.2c-2.4,0-4.6,0.4-6.7,1.2C6,2.2,4.1,3.6,2.6,5.3C1.2,7.1,0.3,9.5,0.3,12
		s0.9,4.8,2.4,6.7c1.4,1.7,3.3,3.1,5.5,3.9c2.1,0.8,4.4,1.2,6.7,1.2c1.5,0,3-0.2,4.4-0.5c2.9-0.7,5.5-2.2,7.5-4.4L26.3,17.4z"/>
	<path class="st0" d="M66,4.3c-0.5,0-1,0.1-1.5,0.3l-5.5,2.5c-0.3-1.6-1.7-2.9-3.4-2.9c-0.5,0-1,0.1-1.5,0.3l-6.7,3.1h4.7v15.5h6.9
		V9.4c0-0.9,0.8-1.7,1.7-1.7s1.7,0.8,1.7,1.7v13.7h6.9V7.7C69.4,5.8,67.9,4.3,66,4.3"/>
	<path class="st0" d="M109.1,4.3c-0.5,0-1,0.1-1.5,0.3l-5.5,2.5c-0.3-1.6-1.7-2.9-3.4-2.9c-0.5,0-1,0.1-1.5,0.3l-6.7,3.1h4.7v15.5
		h6.9V9.4c0-0.9,0.8-1.7,1.7-1.7c0.9,0,1.7,0.8,1.7,1.7v13.7h6.9V7.7C112.5,5.8,111,4.3,109.1,4.3"/>
	<path class="st0" d="M84.2,22.3c-1.1,0.3-2.3-0.4-2.6-1.5L78.3,8.3C78,7.2,78.6,6,79.8,5.7c1.1-0.3,2.3,0.4,2.6,1.5l3.3,12.4
		C86.1,20.8,85.4,22,84.2,22.3 M82,4.3c-5.4,0-9.7,4.4-9.7,9.7c0,5.4,4.4,9.7,9.7,9.7c5.4,0,9.7-4.4,9.7-9.7
		C91.8,8.6,87.4,4.3,82,4.3"/>
	<path class="st0" d="M43,23.2h6.9l-4-14.8c-0.6-2.4-2.8-4.1-5.4-4.1c-0.7,0-1.3,0.1-1.9,0.3l-8.5,3.1h8.8l1.5,5.6
		c-1.5-1.3-3.3-2-5.4-2c-1.5,0-3,0.4-4.3,1.1c-1,0.5-1.8,1.3-2.4,2.3c-0.5,0.8-0.8,1.8-0.8,2.8c0,1,0.3,2,0.8,2.8
		c0.6,1,1.4,1.7,2.4,2.3c1.3,0.7,2.7,1.1,4.3,1.1c3,0,5.6-1.4,7.2-3.7L43,23.2z M41.2,17.4c0,1.9-1.5,3.4-3.4,3.4
		c-1.9,0-3.4-1.5-3.4-3.4c0-1.9,1.5-3.4,3.4-3.4C39.7,14,41.2,15.5,41.2,17.4"/>
	<path class="st0" d="M114.2,61.6v-1.7h-4.3l4.2-5.8v-1.5h-6.8v1.7h4.2l-4.2,5.8v1.5H114.2z M103.5,61.6v-9h-1.9v5.7l-4.2-5.7h-2v9
		h1.9v-5.9l4.3,5.9H103.5z M89.1,58.4h-2.8l1.4-3.9L89.1,58.4z M92.4,61.6l-3.5-9h-2.4l-3.5,9h2.2l0.6-1.5h3.9l0.6,1.5H92.4z"/>
	<path class="st1" d="M67.8,60.3c0.7,0.8,1.8,1.4,3.3,1.4c2.4,0,3.2-1.4,3.2-2.5c0-1.8-1.6-2.3-3-2.7c-1.2-0.3-2.3-0.6-2.3-1.7
		c0-1,0.9-1.7,2.1-1.7c1,0,1.9,0.4,2.6,1.1l0.5-0.6c-0.7-0.8-1.7-1.3-3-1.3c-1.6,0-3,0.9-3,2.4c0,1.7,1.5,2.1,2.9,2.5
		c1.3,0.3,2.5,0.7,2.5,2c0,0.8-0.5,1.8-2.4,1.8c-1.3,0-2.2-0.6-2.8-1.3L67.8,60.3z M58.4,61.6h5.7v-0.7h-4.9v-3.6H64v-0.7h-4.8v-3.3
		h4.9v-0.7h-5.7V61.6z M51.2,61.8c1.5,0,2.5-0.6,3.3-1.6l-0.6-0.4c-0.6,0.8-1.6,1.3-2.7,1.3c-2.1,0-3.7-1.6-3.7-4c0-2.3,1.6-4,3.7-4
		c1.1,0,2.1,0.5,2.7,1.3l0.6-0.4c-0.8-1-1.8-1.6-3.3-1.6c-2.5,0-4.5,1.9-4.5,4.7C46.7,59.9,48.7,61.8,51.2,61.8 M41.7,61.6h0.8v-9
		h-0.8V61.6z M33.5,61.6h1l3.7-9h-0.9l-3.3,8.1l-3.3-8.1h-0.9L33.5,61.6z M25.8,55.2c0,1.1-0.8,1.9-2,1.9h-2.5v-3.9h2.5
		C25,53.3,25.8,54.1,25.8,55.2 M25.8,61.6h0.9l-2.6-3.8c1.3-0.1,2.5-1,2.5-2.6c0-1.6-1.2-2.6-2.7-2.6h-3.4v9h0.8v-3.7h2L25.8,61.6z
		 M10.6,61.6h5.7v-0.7h-4.9v-3.6h4.8v-0.7h-4.8v-3.3h4.9v-0.7h-5.7V61.6z M0,60.3c0.7,0.8,1.8,1.4,3.3,1.4c2.4,0,3.2-1.4,3.2-2.5
		c0-1.8-1.6-2.3-3-2.7c-1.2-0.3-2.3-0.6-2.3-1.7c0-1,0.9-1.7,2.1-1.7c1,0,1.9,0.4,2.6,1.1l0.5-0.6c-0.7-0.8-1.7-1.3-3-1.3
		c-1.6,0-3,0.9-3,2.4c0,1.7,1.5,2.1,2.9,2.5c1.3,0.3,2.5,0.7,2.5,2c0,0.8-0.5,1.8-2.4,1.8c-1.3,0-2.2-0.6-2.8-1.3L0,60.3z"/>
	<path class="st1" d="M133.5,45.9c0.7,0.8,1.8,1.4,3.3,1.4c2.4,0,3.2-1.4,3.2-2.5c0-1.8-1.6-2.3-3-2.7c-1.2-0.3-2.3-0.6-2.3-1.7
		c0-1,0.9-1.7,2.1-1.7c1,0,1.9,0.4,2.6,1.1l0.5-0.6c-0.7-0.8-1.7-1.3-3-1.3c-1.6,0-3,0.9-3,2.4c0,1.7,1.5,2.1,2.9,2.5
		c1.3,0.3,2.5,0.7,2.5,2c0,0.8-0.5,1.8-2.4,1.8c-1.3,0-2.2-0.6-2.8-1.3L133.5,45.9z M123.4,45.9c0.7,0.8,1.8,1.4,3.3,1.4
		c2.4,0,3.2-1.4,3.2-2.5c0-1.8-1.6-2.3-3-2.7c-1.2-0.3-2.3-0.6-2.3-1.7c0-1,0.9-1.7,2.1-1.7c1,0,1.9,0.4,2.6,1.1l0.5-0.6
		c-0.7-0.8-1.7-1.3-3-1.3c-1.6,0-3,0.9-3,2.4c0,1.7,1.5,2.1,2.9,2.5c1.3,0.3,2.5,0.7,2.5,2c0,0.8-0.5,1.8-2.4,1.8
		c-1.3,0-2.2-0.6-2.8-1.3L123.4,45.9z M114,47.1h5.7v-0.7h-4.9v-3.6h4.8v-0.7h-4.8v-3.3h4.9v-0.7H114V47.1z M108.7,47.1h0.8v-9h-0.8
		v7.7l-5.6-7.7h-0.8v9h0.8v-7.8L108.7,47.1z M97,47.1h0.8v-9H97V47.1z M86.3,45.9c0.7,0.8,1.8,1.4,3.3,1.4c2.4,0,3.2-1.4,3.2-2.5
		c0-1.8-1.6-2.3-3-2.7c-1.2-0.3-2.3-0.6-2.3-1.7c0-1,0.9-1.7,2.1-1.7c1,0,1.9,0.4,2.6,1.1l0.5-0.6c-0.7-0.8-1.7-1.3-3-1.3
		c-1.6,0-3,0.9-3,2.4c0,1.7,1.5,2.1,2.9,2.5c1.3,0.3,2.5,0.7,2.5,2c0,0.8-0.5,1.8-2.4,1.8c-1.3,0-2.2-0.6-2.8-1.3L86.3,45.9z
		 M75.3,43.7c0,2.2,1.2,3.6,3.5,3.6c2.3,0,3.5-1.4,3.5-3.6v-5.5h-0.8v5.5c0,1.8-1,2.9-2.7,2.9c-1.8,0-2.7-1.1-2.7-2.9v-5.5h-0.8
		V43.7z M65.5,46.4v-3.6h2.9c1.3,0,1.9,0.9,1.9,1.8c0,1.1-0.7,1.8-1.9,1.8H65.5z M65.5,42.2v-3.3h2.8c1.2,0,1.8,0.8,1.8,1.7
		c0,0.9-0.6,1.7-1.8,1.7H65.5z M64.7,47.1h3.8c1.6,0,2.6-0.9,2.6-2.4c0-1.1-0.8-2.1-1.8-2.2c0.8-0.2,1.6-0.9,1.6-2.1
		c0-1.4-1-2.3-2.5-2.3h-3.7V47.1z M53.6,47.1h0.8v-9h-0.8v7.7L48,38.1h-0.8v9h0.8v-7.8L53.6,47.1z M42.2,42.6c0,2.3-1.4,4-3.6,4
		c-2.2,0-3.6-1.7-3.6-4c0-2.3,1.4-4,3.6-4C40.8,38.7,42.2,40.4,42.2,42.6 M34.2,42.6c0,2.6,1.7,4.7,4.4,4.7c2.6,0,4.4-2,4.4-4.7
		c0-2.6-1.7-4.7-4.4-4.7C36,38,34.2,40,34.2,42.6 M29.3,47.1H30v-9h-0.8v7.7l-5.6-7.7h-0.8v9h0.8v-7.8L29.3,47.1z M15.1,38.9
		l2.2,5.3h-4.3L15.1,38.9z M18.4,47.1h0.9l-3.7-9h-1l-3.7,9h0.9l0.9-2.2h4.8L18.4,47.1z M4.7,47.3c1.5,0,2.5-0.6,3.3-1.6l-0.6-0.4
		c-0.6,0.8-1.6,1.3-2.7,1.3c-2.1,0-3.7-1.6-3.7-4c0-2.3,1.6-4,3.7-4c1.1,0,2.1,0.5,2.7,1.3L8,39.6c-0.8-1-1.8-1.6-3.3-1.6
		c-2.5,0-4.5,1.9-4.5,4.7C0.2,45.4,2.2,47.3,4.7,47.3"/>
</g>
</svg>
