<svg id="Layer_1" data-name="Layer 1" xmlns="http://www.w3.org/2000/svg" viewBox="0 0 110.77 23.37"><defs><style>.cls-1{fill:#eb4647;}</style></defs><path class="cls-1" d="M64.4,43.22c-1.32,0-2.19,1.28-2.47,2.76l3.28-.09c1.17,0,1.36-.24,1.36-.61a2,2,0,0,0-2.17-2.06m3.9,3.42H61.83c0,.43-.07.88-.07,1.33,0,2.64,1.37,3.93,3.47,3.93a4.12,4.12,0,0,0,3.07-1.58c.07-.11.35.08.35.41a.27.27,0,0,1-.07.18,5.2,5.2,0,0,1-4.18,2.46,5.15,5.15,0,0,1-5-5.38c0-2.85,1.91-5.52,5-5.52a4.18,4.18,0,0,1,4.32,3.85c0,.21-.17.32-.42.32" transform="translate(-36 -35.75)"/><path class="cls-1" d="M75.45,43.34c-1.16,0-2.43,1.09-2.43,1.89v5.45c0,.87,1.7,1.91,2.71,1.91,2.22,0,3-2.38,3-4.62,0-2.69-1.06-4.63-3.28-4.63m.57,10c-2,0-2.2-.8-3.45-.8a1.22,1.22,0,0,0-1.18.75c0,.09-.16.14-.28.14s-.31-.07-.31-.19c0-.49.1-1.41.1-2.38V39.38c0-1.25-.19-1.51-1.3-1.63-.12,0-.19-.12-.19-.28s.07-.33.19-.33a8.86,8.86,0,0,0,3-1.2.39.39,0,0,1,.33-.19c.19,0,.33.07.33.19-.07,1-.19,2.9-.19,4.12V43.6a4,4,0,0,1,2.71-1.11,5.06,5.06,0,0,1,5.38,5.38c0,2.88-2.38,5.5-5.09,5.5" transform="translate(-36 -35.75)"/><path class="cls-1" d="M88.41,43.79a3,3,0,0,0-2.36,1.27v5.78c0,1.07,1.11,1.77,2.31,1.77,2.36,0,3.3-2,3.3-4.64s-1.18-4.18-3.25-4.18m0,9.58a4.9,4.9,0,0,1-2.4-.54v3.63c0,1.51.23,1.84,1.6,2,.1,0,.19.14.19.33s-.09.33-.19.33c-1,0-1.53-.14-2.64-.14s-1.68.14-2.67.14c-.09,0-.18-.16-.18-.33s.09-.33.18-.33c1.37-.16,1.61-.49,1.61-2V46c0-1.25-.19-1.51-1.32-1.63-.1,0-.19-.14-.19-.31s.09-.28.19-.28a7.8,7.8,0,0,0,2.85-1.23c.1,0,.17-.18.33-.18s.33.09.33.18l-.09,1.49a5,5,0,0,1,3-1.58c3.37,0,5,2.5,5,5.52a5.3,5.3,0,0,1-5.59,5.38" transform="translate(-36 -35.75)"/><path class="cls-1" d="M102.78,44.78c-1,0-1.06-.61-1.72-.61a2.12,2.12,0,0,0-1.59.89v5.31c0,1.51.5,1.82,1.87,2,.12,0,.19.14.19.33s-.07.33-.19.33c-1,0-1.79-.14-2.93-.14s-1.67.14-2.66.14c-.1,0-.19-.14-.19-.33a.31.31,0,0,1,.19-.33c1.39-.16,1.6-.47,1.6-2V46c0-1.25-.19-1.51-1.32-1.63-.09,0-.19-.14-.19-.31s.1-.28.19-.28a8,8,0,0,0,2.88-1.23c.07,0,.14-.18.33-.18s.33.09.33.18l-.1,1.49a4.57,4.57,0,0,1,3-1.58,1.27,1.27,0,0,1,1.32,1.18,1.07,1.07,0,0,1-1,1.13" transform="translate(-36 -35.75)"/><path class="cls-1" d="M110.1,43.23C108,43.23,107,45.35,107,48s1,4.64,3.12,4.64,3.11-2,3.11-4.64-1-4.74-3.11-4.74m0,10.14A5.24,5.24,0,0,1,104.6,48a5.5,5.5,0,1,1,11,0,5.22,5.22,0,0,1-5.49,5.38" transform="translate(-36 -35.75)"/><path class="cls-1" d="M129.28,53c-1,0-1.51-.14-2.64-.14s-1.56.14-2.55.14c-.12,0-.19-.14-.19-.33s.07-.33.19-.33c1.37-.16,1.48-.47,1.48-2V46c0-1.28-.18-1.51-1.29-1.63-.12,0-.19-.14-.19-.31s.07-.28.19-.28a8.3,8.3,0,0,0,3-1.23c.07,0,.14-.18.33-.18s.33.09.33.18c-.1,1-.19,2.88-.19,4.11v3.68c0,1.53.21,1.84,1.58,2,.12,0,.19.14.19.33s-.07.33-.19.33m-2.81-14.62c-1.06,0-1-1.11-2.92-1.11s-2.76,1.08-2.76,3.54v9.53c0,1.53.11,1.84,1.51,2,.09,0,.16.14.16.33s-.07.33-.16.33c-1,0-1.44-.14-2.58-.14s-1.65.14-2.64.14c-.12,0-.18-.14-.18-.33s.06-.33.18-.33c1.37-.16,1.58-.47,1.58-2V44.73c0-.19-.09-.33-.28-.33h-1.2c-.14,0-.24-.18-.24-.3a.38.38,0,0,1,.21-.36c.62-.16,1.51-.37,1.51-.66,0-3.25,2.43-7.22,6.33-7.22,1.34,0,2.64.81,2.64,1.59,0,.63-.4.94-1.16.94" transform="translate(-36 -35.75)"/><path class="cls-1" d="M137.64,44.26l-3.52-.09v5.66c0,1.49.47,2.22,1.58,2.22a3.16,3.16,0,0,0,1.75-.45c.12-.07.28.16.28.38a.37.37,0,0,1-.12.25,3.94,3.94,0,0,1-2.73,1,2.8,2.8,0,0,1-2.95-3.09l0-5.73a.3.3,0,0,0-.29-.33h-.9a.28.28,0,0,1-.25-.31.44.44,0,0,1,.21-.35,9.43,9.43,0,0,0,2.85-2.74.38.38,0,0,1,.33-.18c.17,0,.33.09.33.18L134.17,43h3.47c.19,0,.3.28.3.64s-.11.63-.3.63" transform="translate(-36 -35.75)"/><path class="cls-1" d="M142.9,53.37c-1,0-2.24-.43-3-.43-.09-.82-.31-1.88-.42-2.5,0-.09.16-.19.33-.19a.32.32,0,0,1,.33.19,3.2,3.2,0,0,0,2.73,2.17,1.69,1.69,0,0,0,1.87-1.84c0-2.31-5.1-1.81-5.1-5.28,0-1.7,1.73-3,3.61-3,1,0,2,.33,2.52.33,0,.83.08,1.65.15,2.36,0,.09-.15.19-.33.19s-.31-.07-.33-.19a2,2,0,0,0-1.89-1.93c-1.28,0-1.84.58-1.84,1.6,0,2.19,5.19,2.29,5.19,5.14a3.63,3.63,0,0,1-3.87,3.4" transform="translate(-36 -35.75)"/><path class="cls-1" d="M53.07,53.1a1,1,0,0,0,.11.25s.13,0,.23,0h.26c.18,0,.26-.08.35-.28h0l3.85-8.4A2.77,2.77,0,0,1,59.41,43v-.3c0-.15-.08-.26-.16-.26-.69,0-1.11.12-1.57.12-.8,0-1-.12-1.82-.12-.08,0-.15.11-.16.26h0V43c.39.08.77.24.77.83a4.49,4.49,0,0,1-.36,1.55L54.2,49.78h-.05l-2.4-7.19h-.69l-2.53,7h-.05L46.75,45a4,4,0,0,1-.33-1.26.7.7,0,0,1,.74-.7v-.29h0c0-.15,0-.27-.15-.27-.8,0-1.14.12-2,.12-.59,0-.94,0-1.33-.08A7.42,7.42,0,0,0,39,41.22c-1.62.16-3.09,1.28-3,2.22.08.76.6,1.09,1.51,1,1.28-.13,1.12-1.46,3.39-1.68a3.48,3.48,0,0,1,1.83.26,3.06,3.06,0,0,1,1.44,1.81l3.38,8.27h0c.09.2.17.28.35.28h.27c.1,0,.2,0,.23,0a1.53,1.53,0,0,0,.11-.25l2.29-6.67h.05Z" transform="translate(-36 -35.75)"/></svg>